<svg width="1940" height="1090" viewBox="0 0 1940 1090" fill="none" xmlns="http://www.w3.org/2000/svg">
<path d="M0 0.5H583.5C620.779 0.5 651 30.7208 651 68V68C651 105.279 620.779 135.5 583.5 135.5H311.5C274.221 135.5 244 165.721 244 203V203C244 240.279 274.221 270.5 311.5 270.5H526C563.279 270.5 593.5 300.721 593.5 338V338C593.5 375.279 563.279 405.5 526 405.5H507C469.721 405.5 439.5 435.721 439.5 473V473C439.5 510.279 469.721 540.5 507 540.5H534C571.279 540.5 601.5 570.721 601.5 608V608C601.5 645.279 571.279 675.5 534 675.5H402C364.721 675.5 334.5 705.721 334.5 743V769.75C334.5 792.256 352.744 810.5 375.25 810.5V810.5C397.756 810.5 416 828.744 416 851.25V878C416 915.279 385.779 945.5 348.5 945.5H345C307.721 945.5 277.5 975.721 277.5 1013V1013C277.5 1050.28 247.279 1080.5 210 1080.5H0V0.5Z" fill="white" fill-opacity="0.2"/>
<path d="M1939.5 1089.5H1356C1318.72 1089.5 1288.5 1059.28 1288.5 1022V1022C1288.5 984.721 1318.72 954.5 1356 954.5H1628C1665.28 954.5 1695.5 924.279 1695.5 887V887C1695.5 849.721 1665.28 819.5 1628 819.5H1413.5C1376.22 819.5 1346 789.279 1346 752V752C1346 714.721 1376.22 684.5 1413.5 684.5H1432.5C1469.78 684.5 1500 654.279 1500 617V617C1500 579.721 1469.78 549.5 1432.5 549.5H1405.5C1368.22 549.5 1338 519.279 1338 482V482C1338 444.721 1368.22 414.5 1405.5 414.5H1537.5C1574.78 414.5 1605 384.279 1605 347V320.25C1605 297.744 1586.76 279.5 1564.25 279.5V279.5C1541.74 279.5 1523.5 261.256 1523.5 238.75V212C1523.5 174.721 1553.72 144.5 1591 144.5H1592.75C1631 144.5 1662 113.496 1662 75.25V72.25C1662 32.3474 1694.35 0 1734.25 0H1939.5V1089.5Z" fill="white" fill-opacity="0.2"/>
</svg>
